<svg
  xmlns="http://www.w3.org/2000/svg"
  width="536"
  height="562.667"
  version="1"
  viewBox="0 0 402 422"
>
  <path
    fill="#7762cd"
    d="M2020 3438l1-413 698-402c384-222 701-403 704-403 4 0 7 186 7 413l-1 412-694 400c-381 220-698 401-704 403-8 3-11-117-11-410zM1225 3435l-700-404-3-416-2-417 36 21c20 12 337 195 705 407l669 386v414c0 228-1 414-2 414-2 0-318-182-703-405zM2020 2499v-414l268-154c147-85 363-210 480-278l212-122-2 416-3 417-465 269c-256 148-471 271-477 274-10 4-13-81-13-408zM1223 2492l-703-405v-828l23 12c52 28 1373 791 1380 798 4 4 6 192 5 418l-3 411-702-406zM2020 1557v-414l683-393c375-217 692-400 705-408l22-14-2 417-3 417-640 370c-352 203-668 385-702 405l-63 35v-415zM1223 1550l-703-405V733c0-227 2-413 4-413 7 0 1389 799 1398 808 4 4 7 193 6 418l-3 410-702-406z"
    transform="matrix(.1 0 0 -.1 0 422)"
  ></path>
</svg>